<?xml version="1.0" encoding="utf-8"?>
<!-- Generator: Adobe Illustrator 22.0.1, SVG Export Plug-In . SVG Version: 6.00 Build 0)  -->
<svg version="1.1" id="svg2041" xmlns="http://www.w3.org/2000/svg" xmlns:xlink="http://www.w3.org/1999/xlink" x="0px" y="0px"
	 viewBox="0 0 694.3 425.2" style="enable-background:new 0 0 694.3 425.2;" xml:space="preserve">
<style type="text/css">
	.st0{fill:#0079C2;}
	.st1{fill:#FFFFFF;}
</style>
<g>
	<g id="g2058" transform="translate(7.081015,7.088444)">
		<path id="path26" class="st0" d="M210.1,215.8h43.2v14.1h-20.5V329h-22.6V215.8"/>
		<path id="path28" class="st0" d="M278.8,286.5l3.9-56.6h1.3l3.9,56.6H278.8z M253.8,329h22.2l2.1-30.1h10.7l2.1,30.1H313
			l-11.8-113.2h-35.6L253.8,329"/>
		<path id="path30" class="st0" d="M345.4,289.4v21.3c0,2.9,2.2,3.7,3.5,3.7c2.1,0,3.6-1.8,3.6-3.7v-26.4c0-3.5-0.6-7.4-9.1-7.4
			h-9.2v-12.4h9.6c6.4,0,8.7-1.5,8.7-8.4v-22.5c0-1.9-1.5-3.7-3.6-3.7c-1.3,0-3.5,0.7-3.5,3.7v18.5h-22.6V236
			c0-7.9,0.9-20.2,16.8-20.2h18.7c15.9,0,16.9,12.3,16.9,20.2v18.1c0,12.3-8.6,15.7-15.4,15.4v1.1c15.2-0.4,15.4,11.3,15.4,15.3
			v22.8c0,8-1,20.2-16.9,20.2h-18.7c-15.9,0-16.8-12.2-16.8-20.2v-19.4H345.4"/>
		<path id="path32" class="st0" d="M390,215.8h52.4V329h-22.6v-99.1h-7.1V329H390V215.8"/>
		<path id="path34" class="st0" d="M479.9,278.1v-48.2h3c2.4,0,4.2,2,4.2,5.7v36.8c0,3.6-1.8,5.7-4.2,5.7H479.9z M457.3,329h22.6
			v-38.5h13c15.8,0,16.8-12.2,16.8-20.2V236c0-7.9-1-20.2-16.8-20.2h-35.6V329"/>
		<path id="path36" class="st0" d="M554.4,310.7c0,1.9-1.5,3.7-3.6,3.7c-1.3,0-3.5-0.8-3.5-3.7v-77.1c0-3,2.2-3.7,3.5-3.7
			c2.1,0,3.6,1.8,3.6,3.7V310.7z M524.6,308.8c0,8,1,20.2,16.8,20.2h18.8c15.8,0,16.8-12.2,16.8-20.2V236c0-7.9-1-20.2-16.8-20.2
			h-18.8c-15.8,0-16.8,12.3-16.8,20.2V308.8"/>
		<path id="path38" class="st0" d="M650.7,215.8h29.5V329h-22.6v-71h-0.8L645,329h-18.1l-11.6-71h-0.8v71h-22.6V215.8h29.4
			l14.8,79.6L650.7,215.8"/>
		<path id="path40" class="st0" d="M180.7,61C173.8,30.7,156.4,6,154,2c-3.8,5.7-17.6,27.5-24.7,51.6c-7.7,27-8.8,50.9-6.2,74.4
			c2.6,23.6,12.6,47.8,12.6,47.8c5.3,12.6,13.2,26.3,18.4,32.9c7.6-9.8,24.9-39.2,30.4-77.4C187.5,110,187.7,91.4,180.7,61z
			 M154,201.1c-3.4-6.4-8.7-18.6-9.2-37.5c-0.1-18.2,7.2-33.9,9.3-37.1c1.9,3.2,8.2,16.9,8.9,35.5
			C163.6,180.3,157.6,194.6,154,201.1z M178.7,112.5c-0.3,11.6-1.6,23.8-3.4,31.2c0.6-12.6-0.9-30.3-3.8-44.3
			c-2.9-13.8-11.1-37-17.6-47.7c-6,10.2-13.5,30.3-17.4,47.6c-3.9,17.4-4,38.4-4,44.7c-1-5.3-3.6-24.3-2.9-43.3
			c0.6-15.7,4.3-31.9,6.3-39.3c7.7-24.8,16.4-40.6,18-43.1c1.6,2.5,12.6,22.1,18.3,42.6C177.8,81.3,179,101,178.7,112.5"/>
		<path id="path42" class="st0" d="M165.8,215.8h-52.7v35.4c0,0,0.1-0.1,0.1-0.1c12.4-12.4,32.6-12.4,45,0
			c12.4,12.3,12.4,32.5,0,44.9c-0.1,0.1-0.1,0.1-0.2,0.2l0,0c-0.1,0-0.1,0.1-0.2,0.2c-12.4,12.2-28.6,18.4-44.8,18.4
			c-16.3,0-32.5-6.1-44.9-18.6c-21.9-21.8-24.5-55.7-7.8-80.4c2.2-3.3,4.8-6.5,7.8-9.5c12.4-12.4,28.7-18.6,44.9-18.6v-85
			C50.6,102.8,0,153.3,0,215.8s50.6,113.1,113.1,113.1c32.6,0,61.9-13.8,82.6-35.8v-77.3H165.8"/>
	</g>
	<rect x="7.1" y="355.1" class="st0" width="680.2" height="61.5"/>
	<g>
		<path class="st1" d="M44,370.6v6.5h-9.1v25.8H27v-32.3H44z"/>
		<path class="st1" d="M49.3,379c0-2.7,0.8-4.8,2.5-6.4c1.8-1.8,4.5-2.7,8.1-2.7c3.5,0,6.1,0.9,8,2.7c1.6,1.6,2.5,3.8,2.5,6.5v14.5
			c0,3.3-0.8,5.8-2.5,7.5c-1.7,1.7-4.3,2.5-7.9,2.5c-3.5,0-6.2-0.9-7.9-2.6s-2.6-4.2-2.6-7.5V379z M59.7,375.7
			c-0.7,0-1.4,0.2-1.9,0.7c-0.5,0.5-0.8,1.2-0.8,2v16.4c0,0.9,0.3,1.6,0.8,2.1c0.5,0.5,1.2,0.7,1.9,0.7c0.7,0,1.4-0.2,1.9-0.7
			c0.5-0.5,0.8-1.2,0.8-2.2v-16.4c0-0.9-0.3-1.5-0.8-2C61.1,375.9,60.5,375.7,59.7,375.7z"/>
		<path class="st1" d="M77.1,402.9v-32.3h11.3c2.8,0,4.9,0.6,6.4,1.8c2,1.6,3,4.3,3,8c0,3.6-1,6.3-3,7.9c-1.6,1.3-3.7,1.9-6.4,1.9
			h-3.5v12.6H77.1z M84.9,384.5h1.4c1.1,0,1.9-0.3,2.6-0.9c0.7-0.7,1.1-1.8,1.1-3.3s-0.3-2.5-1-3.1c-0.7-0.6-1.6-0.9-2.8-0.9h-1.3
			V384.5z"/>
		<path class="st1" d="M111.9,389.2v13.7h-7.8v-32.3h7.8v12.1h5.1v-12.1h7.8v32.3h-7.8v-13.7H111.9z"/>
		<path class="st1" d="M131.6,379c0-2.7,0.8-4.8,2.5-6.4c1.8-1.8,4.5-2.7,8.1-2.7c3.5,0,6.1,0.9,8,2.7c1.6,1.6,2.5,3.8,2.5,6.5v14.5
			c0,3.3-0.8,5.8-2.5,7.5c-1.7,1.7-4.3,2.5-7.9,2.5c-3.5,0-6.2-0.9-7.9-2.6s-2.6-4.2-2.6-7.5V379z M142.1,375.7
			c-0.7,0-1.4,0.2-1.9,0.7c-0.5,0.5-0.8,1.2-0.8,2v16.4c0,0.9,0.3,1.6,0.8,2.1c0.5,0.5,1.2,0.7,1.9,0.7c0.7,0,1.4-0.2,1.9-0.7
			c0.5-0.5,0.8-1.2,0.8-2.2v-16.4c0-0.9-0.3-1.5-0.8-2C143.4,375.9,142.8,375.7,142.1,375.7z"/>
		<path class="st1" d="M158.1,394.5v-5h19.4v5H158.1z"/>
		<path class="st1" d="M188.4,402.9v-25.8h-6.1v-6.5h19v6.5h-5.7v25.8H188.4z"/>
		<path class="st1" d="M228.6,370.6l-6.9,24.9c-0.9,3.1-1.9,5.2-3.1,6.3c-1.2,1-3.2,1.6-5.9,1.6c-0.8,0-1.6-0.1-2.3-0.2
			c-0.7-0.2-1.3-0.4-1.6-0.7v-5.5c0.3,0.1,0.6,0.2,0.9,0.2c0.3,0,0.6,0,1,0c0.4,0,0.8-0.1,1.1-0.2c0.3-0.1,0.6-0.4,0.7-0.9
			l-7.3-25.4h8.1l2.9,14.1l0.5,6.7l0.7-6l3.1-14.8H228.6z"/>
		<path class="st1" d="M234,402.9v-32.3h11.3c2.8,0,4.9,0.6,6.4,1.8c2,1.6,3,4.3,3,8c0,3.6-1,6.3-3,7.9c-1.6,1.3-3.7,1.9-6.4,1.9
			h-3.5v12.6H234z M241.8,384.5h1.4c1.1,0,1.9-0.3,2.6-0.9c0.7-0.7,1.1-1.8,1.1-3.3s-0.3-2.5-1-3.1c-0.7-0.6-1.6-0.9-2.8-0.9h-1.3
			V384.5z"/>
		<path class="st1" d="M273.9,402.9v-7.5c0.4-4,0.9-8.1,1.4-12.2l-6.7,19.7H261v-32.3h7.5v8.1c0,0.9-0.3,3.5-0.8,7.7
			c-0.2,1.9-0.4,3.4-0.4,4.5l6.6-20.3h7.4v32.3H273.9z"/>
		<path class="st1" d="M300.9,390.1h7.8v3c0,3.6-0.9,6.3-2.6,7.9c-1.7,1.7-4.4,2.5-8,2.5s-6.3-0.8-8-2.5s-2.6-4.3-2.6-8v-14
			c0-2.7,0.8-4.9,2.5-6.5c1.8-1.8,4.5-2.6,8.1-2.6c3.5,0,6.1,0.9,8,2.7c1.7,1.6,2.5,3.8,2.5,6.5v2.9h-7.8v-3.6
			c0-0.8-0.3-1.4-0.9-1.8c-0.6-0.4-1.2-0.7-1.9-0.7c-0.7,0-1.3,0.2-1.8,0.6c-0.5,0.4-0.8,1-0.8,1.8v16.2c0,1.2,0.2,2.1,0.7,2.6
			c0.4,0.5,1.1,0.8,2,0.8c0.9,0,1.6-0.3,2.1-0.8c0.5-0.5,0.8-1.4,0.8-2.6V390.1z"/>
		<path class="st1" d="M320.1,402.9v-25.8H314v-6.5h19v6.5h-5.7v25.8H320.1z"/>
		<path class="st1" d="M351.6,402.9v-7.5c0.5-4,0.9-8.1,1.4-12.2l-6.7,19.7h-7.6v-32.3h7.5v8.1c0,0.9-0.3,3.5-0.8,7.7
			c-0.2,1.9-0.4,3.4-0.4,4.5l6.6-20.3h7.4v32.3H351.6z"/>
		<path class="st1" d="M365.6,370.6h7.8v10.9c0,1.5,0.7,2.2,2.2,2.2c1.1,0,2.1-0.2,2.9-0.6v-12.5h7.8v32.3h-7.8v-13.6
			c-1.1,0.4-2,0.6-2.9,0.7c-0.9,0.1-2,0.2-3.4,0.2c-1.5,0-2.9-0.5-4.2-1.6c-1.6-1.3-2.3-3.1-2.3-5.3V370.6z"/>
		<path class="st1" d="M394.3,402.9v-32.3h18.1v6.1h-10.3v6.2h9.5v6.1h-9.5v7.7h10.3v6.1H394.3z"/>
		<path class="st1" d="M431.1,390.1h7.8v3c0,3.6-0.9,6.3-2.6,7.9s-4.4,2.5-8,2.5c-3.6,0-6.3-0.8-8-2.5s-2.6-4.3-2.6-8v-14
			c0-2.7,0.8-4.9,2.5-6.5c1.8-1.8,4.5-2.6,8.1-2.6c3.5,0,6.1,0.9,8,2.7c1.7,1.6,2.5,3.8,2.5,6.5v2.9h-7.8v-3.6
			c0-0.8-0.3-1.4-0.9-1.8c-0.6-0.4-1.2-0.7-1.9-0.7c-0.7,0-1.3,0.2-1.8,0.6c-0.5,0.4-0.8,1-0.8,1.8v16.2c0,1.2,0.2,2.1,0.7,2.6
			c0.4,0.5,1.1,0.8,2,0.8s1.6-0.3,2.1-0.8c0.5-0.5,0.8-1.4,0.8-2.6V390.1z"/>
		<path class="st1" d="M445.7,402.9v-32.3h7.4v12.8l5.4-12.8h8.5l-7.2,14.2l7.2,18h-8.2l-3.6-11.2l-2.1,3.7v7.5H445.7z"/>
		<path class="st1" d="M485.5,402.9v-7.5c0.5-4,0.9-8.1,1.4-12.2l-6.7,19.7h-7.6v-32.3h7.5v8.1c0,0.9-0.3,3.5-0.8,7.7
			c-0.2,1.9-0.4,3.4-0.4,4.5l6.6-20.3h7.4v32.3H485.5z"/>
		<path class="st1" d="M513.1,402.9v-7.5c0.5-4,0.9-8.1,1.4-12.2l-6.7,19.7h-7.6v-32.3h7.4v8.1c0,0.8-0.3,3.3-0.8,7.7
			c-0.2,1.7-0.3,3.2-0.3,4.5l6.6-20.3h7.4v32.3H513.1z M505.5,367.3c1.1,0.9,2.8,1.3,4.9,1.3c1.9,0,3.5-0.5,4.8-1.4
			c1.4-1,2.1-2.5,2.1-4.4h-2.9c-0.3,0.9-0.8,1.6-1.4,1.9c-0.5,0.3-1.3,0.4-2.4,0.4c-1.1,0-1.9-0.1-2.6-0.4c-0.9-0.4-1.4-1-1.4-1.9
			h-3C503.5,364.8,504.2,366.3,505.5,367.3z"/>
		<path class="st1" d="M550.2,396.4h5.1v-25.8h7.8v25.8h1.7v13.1h-7.6v-6.7h-14.7v-32.3h7.8V396.4z"/>
		<path class="st1" d="M570.7,402.9v-32.3h18.1v6.1h-10.3v6.2h9.5v6.1h-9.5v7.7h10.3v6.1H570.7z"/>
		<path class="st1" d="M602.9,389.2v13.7h-7.8v-32.3h7.8v12.1h5.1v-12.1h7.8v32.3H608v-13.7H602.9z"/>
		<path class="st1" d="M627.7,402.9v-25.8h-6.1v-6.5h19v6.5h-5.7v25.8H627.7z"/>
		<path class="st1" d="M646.4,402.9v-32.3h11.3c2.8,0,4.9,0.6,6.4,1.8c2,1.6,3,4.3,3,8c0,3.6-1,6.3-3,7.9c-1.6,1.3-3.7,1.9-6.4,1.9
			h-3.5v12.6H646.4z M654.1,384.5h1.4c1.1,0,1.9-0.3,2.6-0.9c0.7-0.7,1.1-1.8,1.1-3.3s-0.3-2.5-1-3.1c-0.7-0.6-1.6-0.9-2.8-0.9h-1.3
			V384.5z"/>
	</g>
</g>
</svg>
