<?xml version="1.0" encoding="UTF-8" standalone="no"?>
<!-- Generator: Adobe Illustrator 19.2.1, SVG Export Plug-In . SVG Version: 6.00 Build 0)  -->

<svg
   xmlns:dc="http://purl.org/dc/elements/1.1/"
   xmlns:cc="http://creativecommons.org/ns#"
   xmlns:rdf="http://www.w3.org/1999/02/22-rdf-syntax-ns#"
   xmlns:svg="http://www.w3.org/2000/svg"
   xmlns="http://www.w3.org/2000/svg"
   xmlns:sodipodi="http://sodipodi.sourceforge.net/DTD/sodipodi-0.dtd"
   xmlns:inkscape="http://www.inkscape.org/namespaces/inkscape"
   version="1.1"
   id="Ebene_1"
   x="0px"
   y="0px"
   viewBox="0 0 295.79999 45.1507"
   xml:space="preserve"
   inkscape:version="0.91 r13725"
   sodipodi:docname="prinoth_corporate_cropped.svg"
   width="295.79999"
   height="45.1507"><metadata
     id="metadata32"><rdf:RDF><cc:Work
         rdf:about=""><dc:format>image/svg+xml</dc:format><dc:type
           rdf:resource="http://purl.org/dc/dcmitype/StillImage" /><dc:title></dc:title></cc:Work></rdf:RDF></metadata><defs
     id="defs30" /><sodipodi:namedview
     pagecolor="#ffffff"
     bordercolor="#666666"
     borderopacity="1"
     objecttolerance="10"
     gridtolerance="10"
     guidetolerance="10"
     inkscape:pageopacity="0"
     inkscape:pageshadow="2"
     inkscape:window-width="1596"
     inkscape:window-height="959"
     id="namedview28"
     showgrid="false"
     fit-margin-top="0"
     fit-margin-left="0"
     fit-margin-right="0"
     fit-margin-bottom="0"
     inkscape:zoom="0.626"
     inkscape:cx="229.8"
     inkscape:cy="-17.833333"
     inkscape:window-x="61"
     inkscape:window-y="24"
     inkscape:window-maximized="0"
     inkscape:current-layer="Ebene_1" /><style
     type="text/css"
     id="style3">
	.st0{fill:#E1001A;}
</style><g
     id="Prinoth"
     transform="translate(-20.2,-35.515968)"><g
       id="g6"><path
         class="st0"
         d="m 189.9,80.3 c -10.9,-0.1 -29.2,0.1 -32.2,0 -2.4,-0.3 0,-2.8 0,-2.8 0.9,-1 4.5,-5.1 6.4,-7.1 0.8,-0.8 0.8,-1.1 0.2,-1.1 -4.5,0 -7.1,-0.2 -7.4,0.7 -4.3,4 -7.7,10.3 -10.1,10.3 -3.4,0 -13.8,0 -13.9,0 1.7,-1.9 3.5,-4.4 14,-15.7 0,0 28.8,0 30.3,0 2.2,0 6.2,-0.3 5.1,1.2 -0.9,1.1 -5.1,5.7 -7.9,8.9 -1.2,1.6 -1.3,2.4 -0.3,2.4 2.4,0 15.8,0 18.9,0 l -3.1,3.2 z"
         id="path8"
         inkscape:connector-curvature="0"
         style="fill:#e1001a" /><path
         class="st0"
         d="m 134.3,80.3 -28.6,0 c -0.9,0 -3.8,-0.7 0.3,-4.4 4,-4.6 10.4,-11.4 10.4,-11.4 l 13.9,0 c -1.3,2 -9.7,9.9 -9.3,11.5 0.3,1.6 13.4,0.9 16.3,1 l -3,3.3 z"
         id="path10"
         inkscape:connector-curvature="0"
         style="fill:#e1001a" /><path
         class="st0"
         d="m 119.9,60.2 c -0.1,-1.8 3.1,-3.4 7.1,-3.6 4,-0.1 7.3,1.2 7.4,3.1 0.1,1.8 -3.1,3.4 -7.1,3.6 -4,0.1 -7.3,-1.3 -7.4,-3.1"
         id="path12"
         inkscape:connector-curvature="0"
         style="fill:#e1001a" /><path
         class="st0"
         d="m 63.2,59.2 -19.7,21.1 -16.6,0 31.4,-34.2 16.4,0 -6.7,7.7 c 0,0 -0.8,0.6 0.7,0.6 6.6,-0.2 12.7,0 19.2,-1.8 2.5,-0.7 5,-2 7.2,-3.5 2.3,-1.5 2.8,-2.3 1.8,-4 C 88.4,36.3 35.5,46.9 21.3,49 20.9,47.8 20.6,47.2 20.2,45.8 33.6,42.3 129.3,25 127.6,45 c -0.7,3.1 -5.8,6.2 -13.8,9.5 -16.8,5 -33.3,4.7 -50.6,4.7"
         id="path14"
         inkscape:connector-curvature="0"
         style="fill:#e1001a" /><path
         class="st0"
         d="m 270.5,80.3 c 0,0 -27.4,0.1 -28.5,0 -2.6,-0.2 -5.8,-0.5 -3.7,-3.9 1,-1.1 6.3,-6.8 6.1,-7.1 l -15.7,0 3.7,-4.7 13.9,0 c 1.4,0 3,-0.8 3.8,-1.4 1.3,-1.4 2.9,-3.1 4.8,-5.4 0.1,-0.1 13.2,0.1 13.2,0 0,0.1 -5.2,5.8 -5.2,5.8 -0.1,0.1 -1,1 0.2,1 l 5.3,0 c 0.1,0 -4.2,4.7 -4.1,4.7 l -6.5,0 c -1.5,2 -3,3.6 -3.6,4.2 -1,1.1 -2.7,2.7 -0.7,3.5 2.7,0 20.1,0 20.1,0 l -3.1,3.3 z"
         id="path16"
         inkscape:connector-curvature="0"
         style="fill:#e1001a" /><path
         class="st0"
         d="m 285.4,57.8 c 0.1,0 13.9,0 13.9,0 -0.3,0.2 -5.1,5.7 -5.1,5.7 -1.3,1.1 0.9,1.1 0.9,1.1 2.1,0 10.5,-0.1 12.7,0 2.2,0.1 3.2,1 2.3,2.1 -2.9,3.5 -6.5,7.5 -7.7,8.9 -0.2,0.2 -2,1.4 0.3,1.4 l 7.3,0 c 0,0.1 -2.8,3.2 -2.9,3.4 -0.6,0.6 -14,0 -14.9,0 -5.9,0.2 -2.5,-3.2 -2.5,-3.2 1,-1 6.7,-7.7 6.7,-7.7 0.7,-1.4 -0.7,-1 -0.6,-1.1 -5,-0.2 -6,0.4 -7.3,1.6 -3.5,3.7 -4.5,5 -9.4,10.3 l -13.6,0 c -0.1,0 19.1,-22.1 19.9,-22.5"
         id="path18"
         inkscape:connector-curvature="0"
         style="fill:#e1001a" /><path
         class="st0"
         d="m 231.9,64.5 -26.2,0 c -7.9,0 -8.4,-0.1 -9.6,1.2 -4.1,4.3 -7.4,8.5 -9.5,10.8 -1.8,2 -2.2,3.8 2.1,3.8 4.4,0 26.4,0 30.4,0 2.7,0 4,-0.7 5.8,-2.9 1.3,-1.6 4.7,-5.3 7.9,-8.9 4,-4.6 -0.8,-4 -0.9,-4 z m -15.1,5.9 c -2.1,2.4 -4.7,5.2 -5.4,6 -0.3,0.4 -0.7,0.6 -2,0.6 -1.9,0.1 -3.2,0 -5,0 -3.6,0 -2.8,-0.7 -2.3,-1.2 0.4,-0.5 4.3,-4.8 5.2,-5.8 0.9,-1 2.2,-0.7 2.2,-0.7 2.6,0 4.4,0 6.8,0 1.7,0 1.2,0.4 0.5,1.1 z"
         id="path20"
         inkscape:connector-curvature="0"
         style="fill:#e1001a" /><path
         class="st0"
         d="m 107.9,64.5 c -0.4,0 -16.6,0 -25.4,0 -0.9,0 -2.4,1.6 -5.1,4.7 -6.1,6.6 -10.1,11 -10.1,11 l 16.4,0 c 3.9,-4.4 6.7,-8.1 9.1,-10.2 1.4,-1.6 7.8,-0.8 10.9,-0.8 1.8,0 4.2,-4.7 4.2,-4.7"
         id="path22"
         inkscape:connector-curvature="0"
         style="fill:#e1001a" /><polygon
         class="st0"
         points="84,67.6 84.1,64.5 118.8,64.5 116.9,67.6 "
         id="polygon24"
         style="fill:#e1001a" /><path
         class="st0"
         d="m 313.2,55.3 c 0.7,0 1.2,0.2 1.7,0.7 0.5,0.5 0.7,1 0.7,1.7 0,0.7 -0.2,1.2 -0.7,1.7 -0.5,0.5 -1,0.7 -1.7,0.7 -0.7,0 -1.2,-0.2 -1.7,-0.7 -0.5,-0.5 -0.7,-1 -0.7,-1.7 0,-0.7 0.2,-1.2 0.7,-1.7 0.5,-0.4 1.1,-0.7 1.7,-0.7 m 2.8,2.4 c 0,-0.8 -0.3,-1.4 -0.8,-1.9 -0.5,-0.5 -1.2,-0.8 -2,-0.8 -0.8,0 -1.4,0.3 -1.9,0.8 -0.5,0.5 -0.8,1.2 -0.8,1.9 0,0.8 0.3,1.4 0.8,2 0.5,0.5 1.2,0.8 2,0.8 0.8,0 1.4,-0.3 2,-0.8 0.4,-0.6 0.7,-1.2 0.7,-2 m -2,-0.6 c 0,0.2 -0.1,0.4 -0.3,0.5 -0.1,0 -0.3,0.1 -0.5,0.1 l -0.5,0 0,-1.1 0.5,0 c 0.3,0 0.5,0 0.7,0.1 0,0 0.1,0.2 0.1,0.4 m -1.9,-0.9 0,3 0.5,0 0,-1.2 0.4,0 c 0.3,0 0.5,0 0.6,0.1 0.2,0.1 0.3,0.3 0.3,0.7 l 0,0.2 0,0.1 0,0 0,0 0.5,0 0,0 c 0,0 0,-0.1 0,-0.2 0,-0.1 0,-0.2 0,-0.2 l 0,-0.2 c 0,-0.2 -0.1,-0.3 -0.2,-0.5 -0.1,-0.2 -0.3,-0.3 -0.5,-0.3 0.2,0 0.3,-0.1 0.4,-0.1 0.2,-0.1 0.3,-0.3 0.3,-0.6 0,-0.4 -0.2,-0.6 -0.5,-0.8 -0.2,-0.1 -0.5,-0.1 -0.8,-0.1 l -1,0.1 0,0 0,0 z"
         id="path26"
         inkscape:connector-curvature="0"
         style="fill:#e1001a" /></g></g></svg>